<svg width="149" height="22" viewBox="0 0 149 22" fill="none" xmlns="http://www.w3.org/2000/svg">
<path d="M15.7611 0.728271C14.6739 0.728271 13.7513 1.42427 13.4241 2.39014C13.3376 2.64549 13.3063 2.9139 13.2642 3.17904L12.3502 11.4227C12.3293 11.6116 12.074 11.655 11.9917 11.4837L8.89852 5.26065C8.78716 5.02875 8.68257 4.7907 8.55578 4.56696C8.1341 3.8228 7.32878 3.31983 6.40464 3.31983C5.04378 3.31983 3.94064 4.41047 3.94064 5.75583C3.94064 5.84653 3.94566 5.93606 3.95542 6.02419C3.96544 6.1146 3.98303 6.20362 3.99949 6.29302L5.81636 15.1796C5.8465 15.3403 5.67191 15.4609 5.53211 15.3758L2.6009 13.5926C2.33779 13.4253 2.02473 13.3283 1.68869 13.3283C0.756059 13.3283 0 14.0757 0 14.9978C0 15.3197 0.0921333 15.6203 0.251774 15.8752C0.429206 16.1586 0.703655 16.3803 0.937149 16.6168L5.3205 21.0563L5.32357 21.0526C5.71878 21.4685 6.28018 21.7283 6.90298 21.7283C8.08901 21.7283 9.05251 20.7861 9.0696 19.6178L9.0819 16.7357C9.0828 16.5255 9.37471 16.4735 9.44823 16.6704L9.85578 17.7617C10.2364 18.7253 10.5528 19.9477 11.1528 20.8043C11.5439 21.3626 12.1964 21.7283 12.9353 21.7283C13.3222 21.7283 13.6854 21.628 13.9999 21.4523C14.7949 21.008 14.9649 19.9946 15.0619 19.0894C15.5997 14.074 15.3427 16.2661 15.5846 14.056C15.609 13.8331 15.9316 13.8257 15.9574 14.0484C16.0181 14.5714 16.1183 15.597 16.54 19.1745C16.6403 20.0248 16.7845 20.9759 17.5208 21.4137C17.8615 21.6162 18.259 21.7283 18.6506 21.7283C19.3895 21.7283 20.042 21.3626 20.433 20.8043C20.9022 20.0063 21.3314 18.7245 21.6982 17.7617L22.0732 16.7142C22.1445 16.515 22.4395 16.5655 22.4404 16.7771L22.4526 19.6178C22.4696 20.7861 23.4331 21.7283 24.6192 21.7283C25.242 21.7283 25.8034 21.4685 26.1986 21.0526L26.2017 21.0563L30.5601 16.6419C30.7845 16.4147 31.048 16.2007 31.2298 15.9369C31.4143 15.6693 31.5222 15.346 31.5222 14.9978C31.5222 14.0757 30.7661 13.3283 29.8335 13.3283C29.5914 13.3283 29.3613 13.3786 29.1532 13.4693C28.846 13.6031 28.5623 13.8036 28.2743 13.973L25.9968 15.312C25.8569 15.3943 25.685 15.2737 25.715 15.1143L27.4871 6.54482C27.5295 6.29003 27.5815 6.03616 27.5815 5.77683C27.5815 4.43147 26.4784 3.34083 25.1175 3.34083C24.1756 3.34083 23.3571 3.86333 22.9425 4.63115C22.8757 4.75479 22.8185 4.8837 22.7544 5.00885L19.5305 11.4853C19.4481 11.6564 19.193 11.6129 19.1721 11.4242L18.258 3.17904C18.2158 2.9139 18.1845 2.64549 18.098 2.39014C17.7709 1.42427 16.8482 0.728271 15.7611 0.728271Z" fill="#1F1F1F"/>
<path fill-rule="evenodd" clip-rule="evenodd" d="M117.088 4.58923C118.999 4.58923 120.717 4.9528 122.242 5.67992C123.768 6.39279 124.965 7.38367 125.835 8.65258C126.705 9.90722 127.14 11.3258 127.14 12.9084C127.14 14.4767 126.705 15.8882 125.835 17.1428C124.965 18.3975 123.768 19.3884 122.242 20.1155C120.717 20.8284 118.999 21.1848 117.088 21.1848C115.249 21.1848 113.552 20.8284 111.998 20.1155C110.459 19.3884 109.232 18.3975 108.32 17.1428C107.407 15.8739 106.951 14.4624 106.951 12.9084C106.951 11.3401 107.4 9.92148 108.299 8.65258C109.211 7.38367 110.444 6.39279 111.998 5.67992C113.552 4.9528 115.249 4.58923 117.088 4.58923ZM117.088 17.6989C118.015 17.6989 118.892 17.5135 119.719 17.1428C120.546 16.7579 121.216 16.209 121.729 15.4961C122.242 14.769 122.499 13.9064 122.499 12.9084C122.499 11.9246 122.242 11.0692 121.729 10.3421C121.216 9.60069 120.546 9.03753 119.719 8.65258C118.892 8.26763 118.015 8.07515 117.088 8.07515C116.133 8.07515 115.235 8.26763 114.394 8.65258C113.567 9.02327 112.904 9.57218 112.405 10.2993C111.906 11.0264 111.656 11.8819 111.656 12.8656C111.656 13.8636 111.906 14.7333 112.405 15.4747C112.918 16.2018 113.588 16.7579 114.415 17.1428C115.256 17.5135 116.147 17.6989 117.088 17.6989Z" fill="#1F1F1F"/>
<path fill-rule="evenodd" clip-rule="evenodd" d="M93.9391 20.7357C93.7781 20.7357 93.6251 20.6653 93.5202 20.5431L89.3013 15.6244H84.8316V20.1838C84.8316 20.4886 84.5845 20.7357 84.2797 20.7357H81.1063C80.8015 20.7357 80.5544 20.4886 80.5544 20.1838V5.46192C80.5544 5.15712 80.8015 4.91002 81.1063 4.91002H92.1242C93.4502 4.91002 94.6193 5.13101 95.6315 5.57299C96.6581 6.01497 97.4494 6.63516 98.0054 7.43357C98.5176 8.13789 98.7998 8.94573 98.852 9.85708C98.8674 10.1265 98.8651 10.3985 98.8481 10.6677C98.7743 11.8391 98.3794 12.8213 97.6632 13.6141C96.8791 14.4981 95.7884 15.0898 94.3912 15.3892L98.205 19.8239C98.5128 20.1817 98.2585 20.7357 97.7866 20.7357H93.9391ZM92.6037 8.1669H84.8254V12.3406H92.6037C93.7563 12.3406 94.6906 11.4063 94.6906 10.2538C94.6906 9.10122 93.7563 8.1669 92.6037 8.1669Z" fill="#1F1F1F"/>
<path d="M59.2202 20.7571C59.525 20.7571 59.7721 20.51 59.7721 20.2052V5.48331C59.7721 5.1785 59.525 4.93141 59.2202 4.93141H55.0059C54.7948 4.93141 54.6022 5.05185 54.5097 5.24165L49.0363 16.4799L43.3935 5.23576C43.2998 5.04919 43.1089 4.93141 42.9002 4.93141H38.5958C38.291 4.93141 38.0439 5.1785 38.0439 5.48331V20.2052C38.0439 20.51 38.291 20.7571 38.5958 20.7571H41.9189C42.2237 20.7571 42.4708 20.51 42.4708 20.2052V12.0743L46.7864 20.4578C46.881 20.6416 47.0704 20.7571 47.2771 20.7571H50.83C51.041 20.7571 51.2336 20.6367 51.3261 20.447L55.3238 12.2454V20.2052C55.3238 20.51 55.5709 20.7571 55.8757 20.7571H59.2202Z" fill="#1F1F1F"/>
<path d="M66.4515 14.2985H76.2505C76.5553 14.2985 76.8024 14.0514 76.8024 13.7466V11.5356C76.8024 11.2307 76.5553 10.9837 76.2505 10.9837H66.4515V8.28902H78.0647C78.3709 8.28902 78.6186 8.03978 78.6166 7.7336L78.6023 5.47979C78.6003 5.17637 78.3538 4.93141 78.0504 4.93141H62.5765C62.2717 4.93141 62.0246 5.1785 62.0246 5.48331V20.2052C62.0246 20.51 62.2717 20.7571 62.5765 20.7571H78.0469C78.3517 20.7571 78.5988 20.51 78.5988 20.2052V17.9339C78.5988 17.6275 78.3493 17.3798 78.043 17.382L66.4515 17.4636V14.2985Z" fill="#1F1F1F"/>
<path d="M100.755 20.2052C100.755 20.51 101.002 20.7571 101.307 20.7571H104.63C104.935 20.7571 105.182 20.51 105.182 20.2052V5.27635C105.182 5.08584 105.027 4.93141 104.837 4.93141H101.1C100.909 4.93141 100.755 5.08584 100.755 5.27635V20.2052Z" fill="#1F1F1F"/>
<path d="M144.483 4.93141C144.178 4.93141 143.931 5.1785 143.931 5.48331V15.3892L133.506 5.09069C133.402 4.98864 133.263 4.93141 133.118 4.93141H129.47C129.165 4.93141 128.918 5.1785 128.918 5.48331V20.2052C128.918 20.51 129.165 20.7571 129.47 20.7571H132.793C133.097 20.7571 133.345 20.51 133.345 20.2052V10.2779L143.769 20.5974C143.873 20.6997 144.012 20.7571 144.158 20.7571H147.827C148.132 20.7571 148.379 20.51 148.379 20.2052V5.48331C148.379 5.1785 148.132 4.93141 147.827 4.93141H144.483Z" fill="#1F1F1F"/>
</svg>
